<svg xmlns="http://www.w3.org/2000/svg" viewBox="0 0 4501 4500" preserveAspectRatio="xMidYMid meet">
  <g transform="translate(0,4500) scale(0.1,-0.1)" fill="#ffffff" stroke="none">
    <path d="M22280 23804 l-6385 -6406 -3 6401 -2 6401 -545 0 -545 0 0 -7702 0
    -7703 243 242 c2070 2061 6673 6633 6677 6633 4 0 1568 -1548 3476 -3440
    l3469 -3439 765 -1 765 0 -466 468 c-256 257 -1981 1985 -3833 3841 -1852
    1856 -3365 3377 -3364 3381 2 4 1619 1636 3593 3626 1975 1991 3698 3728 3829
    3862 l239 242 -764 0 -764 0 -6385 -6406z"/>
    <path d="M21560 17445 c-338 -61 -564 -410 -480 -739 57 -222 234 -399 451
    -451 435 -102 836 285 744 719 -49 234 -252 429 -490 471 -97 17 -128 17 -225
    0z"/>
  </g>
</svg>

